# Blender v2.79 (sub 0) OBJ File: ''
# www.blender.org
o Cube
v 0.500000 -0.500000 -0.500000
v 0.500000 -0.500000 0.500000
v -0.500000 -0.500000 0.500000
v -0.500000 -0.500000 -0.500000
v 0.500000 0.500000 -0.499999
v 0.499999 0.500000 0.500000
v -0.500000 0.500000 0.500000
v -0.500000 0.500000 -0.500000
vt 0.000000 0.000000
vt -1.000000 -1.000000
vt -1.000000 0.000000
vt -1.000000 1.000000
vt -0.000000 -0.000000
vt 0.000000 1.000000
vt -1.000000 0.000000
vt -0.000000 1.000000
vt -1.000000 0.000000
vt 0.000000 0.000000
vt 0.000000 1.000000
vt 1.000000 0.000000
vt 0.000000 0.000000
vt 0.000000 -1.000000
vt -1.000000 0.000000
vt 0.000000 0.000000
vt 0.000000 -1.000000
vt -1.000000 0.000000
vt -1.000000 1.000000
vt -1.000000 1.000000
vt 1.000000 1.000000
vt -1.000000 -1.000000
vn 0.0000 -1.0000 0.0000
vn 0.0000 1.0000 0.0000
vn 1.0000 -0.0000 0.0000
vn -0.0000 -0.0000 1.0000
vn -1.0000 -0.0000 -0.0000
vn 0.0000 0.0000 -1.0000
usemtl woodTexture.jpg
s 1
f 1/1/1 3/2/1 4/3/1
f 8/4/2 6/5/2 5/6/2
f 5/6/3 2/7/3 1/1/3
f 6/8/4 3/9/4 2/10/4
f 7/11/5 4/12/5 3/13/5
f 1/14/6 8/15/6 5/16/6
f 1/1/1 2/17/1 3/2/1
f 8/4/2 7/18/2 6/5/2
f 5/6/3 6/19/3 2/7/3
f 6/8/4 7/20/4 3/9/4
f 7/11/5 8/21/5 4/12/5
f 1/14/6 4/22/6 8/15/6
